# xmcd
#
# Track frame offsets:
#	150
#	17438
#	36949
#	61365
#	78845
#	95977
#	117207
#	134276
#	151036
#	168672
#	186704
#	202933
#
# Disc length: 2919 seconds
#
# Revision: 0
# Processed by: cddbd v1.5.2PL0 Copyright (c) Steve Scherf et al.
# Submitted via: audiograbber 1.83.01
#
DISCID=9d0b650c
DTITLE=Chartbuster Country April 2011 - CB60461
DYEAR=2011
DGENRE=Karaoke
TTITLE0=Kenny Chesney - Live A Little
TTITLE1=Burns and Poe - How Long Is Long Enough
TTITLE2=Jamey Johnson - Heartache
TTITLE3=Steve Holy - Love Don't Run
TTITLE4=Gretchen Wilson - I'd Love To Be Your Last
TTITLE5=Aaron Lewis - Country Boy
TTITLE6=Walker Hayes - Why Wait For Summer
TTITLE7=Joanna Smith - Georgia Mud
TTITLE8=Chris Young - Tomorrow
TTITLE9=Justin Moore - If Heaven Wasn't So Far Away
TTITLE10=Joey and Rory - That's Important To Me
TTITLE11=Darius Rucker - Together, Anthing's Possible
EXTD=
EXTT0=
EXTT1=
EXTT2=
EXTT3=
EXTT4=
EXTT5=
EXTT6=
EXTT7=
EXTT8=
EXTT9=
EXTT10=
EXTT11=
PLAYORDER=
